<svg height='100px' width='100px'  fill="#1a2f69" xmlns:x="http://ns.adobe.com/Extensibility/1.0/" xmlns:i="http://ns.adobe.com/AdobeIllustrator/10.0/" xmlns:graph="http://ns.adobe.com/Graphs/1.0/" xmlns="http://www.w3.org/2000/svg" xmlns:xlink="http://www.w3.org/1999/xlink" version="1.1" x="0px" y="0px" viewBox="0 0 100 100" enable-background="new 0 0 100 100" xml:space="preserve"><metadata><sfw xmlns="http://ns.adobe.com/SaveForWeb/1.0/"><slices></slices><sliceSourceBounds y="16.939" x="7.266" width="86.623" height="65.56" bottomLeftOrigin="true"></sliceSourceBounds><optimizationSettings><targetSettings targetSettingsID="0" fileFormat="GIFFormat"><GIFFormat transparency="true" lossy="0" matteColor="#FFFFFF" interlaced="false" noMatteColor="false" webShiftPercent="0" includeCaption="false" reductionAlgorithm="selective" ditherAlgorithm="diffusion" ditherPercent="100" numColors="256" rolloverMasterPalette="false" autoReduce="false"><colorTable isExact="false"></colorTable><lockedColors></lockedColors><colorShiftEntries></colorShiftEntries></GIFFormat></targetSettings></optimizationSettings></sfw></metadata><g><path d="M79.55,80.061H17.82c-0.829,0-1.5,0.672-1.5,1.5s0.671,1.5,1.5,1.5h61.73c0.828,0,1.5-0.672,1.5-1.5   S80.378,80.061,79.55,80.061z"></path><path d="M91.159,27.917c-2.685-2.021-6.355-2.209-6.563-2.218c-1.31-0.056-3.135,0.213-4.558,0.632l2.071,5.194L91.159,27.917z"></path><path d="M93.453,30.847c-0.205-0.514-0.473-0.968-0.773-1.385l-10.759,4.29c-0.121,0.049-0.246,0.072-0.37,0.072   c-0.397,0-0.772-0.239-0.929-0.63l-2.461-6.171l-8.695,3.466c-0.858,0.343-2.622,0.319-3.471-0.046L37.172,18.049   c-0.822-0.354-1.889-0.548-3.003-0.548c-0.722,0-1.787,0.082-2.764,0.471l-2.524,1.006c-1.125,0.449-1.849,1.283-1.986,2.289   c-0.138,1.006,0.336,2.004,1.299,2.739l19.764,15.057l-16.72,6.665c-0.859,0.342-2.621,0.319-3.47-0.046l-5.432-2.336   c-0.822-0.354-1.889-0.548-3.004-0.548c-0.721,0-1.786,0.082-2.763,0.471l-7.302,2.911c-1.13,0.451-1.852,1.286-1.98,2.292   c-0.128,1.006,0.361,1.995,1.342,2.715l15.534,11.395c0.945,0.694,2.326,1.108,3.693,1.108c0,0,0,0,0,0   c0.756,0,1.479-0.129,2.088-0.371l55.086-21.96c1.325-0.528,3.424-1.507,4.679-2.182C91.722,38.095,95.094,34.962,93.453,30.847z    M36.526,51.849l-2.389,0.953c-0.122,0.049-0.247,0.071-0.37,0.071c-0.397,0-0.773-0.238-0.929-0.63   c-0.205-0.513,0.045-1.095,0.558-1.299l2.389-0.953c0.515-0.204,1.094,0.045,1.299,0.558   C37.289,51.062,37.039,51.645,36.526,51.849z M43.693,48.991l-2.389,0.952c-0.121,0.049-0.247,0.072-0.37,0.072   c-0.397,0-0.773-0.239-0.929-0.63c-0.205-0.513,0.045-1.095,0.559-1.299l2.389-0.952c0.512-0.207,1.095,0.045,1.299,0.559   C44.456,48.206,44.206,48.787,43.693,48.991z M50.861,46.135l-2.389,0.951c-0.122,0.048-0.247,0.071-0.37,0.071   c-0.397,0-0.773-0.239-0.93-0.63c-0.204-0.513,0.046-1.095,0.559-1.299l2.389-0.951c0.514-0.205,1.095,0.046,1.299,0.559   S51.374,45.931,50.861,46.135z M58.028,43.277l-2.39,0.952c-0.121,0.048-0.247,0.071-0.37,0.071c-0.397,0-0.772-0.239-0.929-0.63   c-0.205-0.513,0.046-1.095,0.559-1.299l2.39-0.952c0.512-0.205,1.095,0.046,1.299,0.559C58.792,42.491,58.541,43.072,58.028,43.277   z M65.196,40.42l-2.39,0.952c-0.121,0.048-0.247,0.071-0.37,0.071c-0.397,0-0.772-0.239-0.929-0.63   c-0.205-0.513,0.046-1.095,0.559-1.299l2.39-0.952c0.513-0.205,1.094,0.046,1.299,0.559C65.96,39.634,65.709,40.216,65.196,40.42z    M72.364,37.563l-2.39,0.952c-0.121,0.048-0.247,0.071-0.37,0.071c-0.397,0-0.772-0.239-0.929-0.63   c-0.205-0.513,0.046-1.095,0.559-1.299l2.39-0.952c0.513-0.204,1.094,0.046,1.299,0.559S72.877,37.358,72.364,37.563z"></path></g></svg>