<svg height='100px' width='100px'  fill="#1a2f69" xmlns="http://www.w3.org/2000/svg" xmlns:xlink="http://www.w3.org/1999/xlink" version="1.1" x="0px" y="0px" viewBox="0 0 100 100" enable-background="new 0 0 100 100" xml:space="preserve"><g><path d="M91.653,50.47c0,0-4.635-2.438-9.469,1.437L65.183,65.822c0,0-0.701,0.656-2.234,0.656H48.407c0,0-1.82-0.305-1.82-1.895   c0,0,0-1.9,1.951-1.9h12.695c0,0,3.92-0.371,3.92-3.486c0,0,0.342-3.582-4.111-3.582l-24.977-0.418c0,0-9.154-0.113-16.754,4.615   L6.825,69.566l18.668,18.291l4.881-4.855c0,0,0.701-1.113,2.027-1.113h29.904c0,0,6.24-0.219,9.838-4.293l20.512-23.104   C92.655,54.492,94.331,52.27,91.653,50.47z"></path><path d="M69.764,28.847c0.185,0.722-0.251,1.457-0.974,1.643c-0.089,0.021-5.268,1.389-9.558,4.341   c0.374,0.551,0.819,1.054,1.337,1.489c2.18,1.834,5.293,2.814,8.115,2.221c5.086-1.07,7.771-6.254,8.869-10.867   c0.133-0.555,1.1-5.867,0.725-5.957c-0.004-0.001-9.508-2.26-15.744-0.012c-4.191,1.512-5.522,6.689-4.441,10.625   c4.553-3.018,9.646-4.359,10.029-4.457C68.848,27.691,69.578,28.125,69.764,28.847z"></path><path d="M40.269,29.976c2.703,0.576,5.671-0.304,7.836-1.987c-1.666-2.567-4.311-5.124-8.505-6.972   c-0.683-0.3-0.992-1.097-0.691-1.779c0.301-0.681,1.099-0.992,1.779-0.691c4.422,1.948,7.329,4.639,9.246,7.404   c0.276-0.452,0.52-0.925,0.706-1.426c1.486-3.992,0.275-9.75-4.176-11.368c-6.23-2.265-15.74-0.03-15.744-0.03   c-0.375,0.089,0.576,5.404,0.707,5.96C32.515,23.701,35.185,28.893,40.269,29.976z"></path><path d="M48.104,27.989c3.128,4.819,2.808,9.681,2.784,9.986l-0.003,5.592c0,0.018-0.002,0.033-0.002,0.051   c0,0.004,0.002,0.008,0.002,0.012l-0.002,5.115c0,0.746,0.604,1.35,1.35,1.35s1.35-0.604,1.35-1.35v-5.127   c0-3.792,2.601-6.689,5.649-8.788c-0.372-0.547-0.674-1.142-0.905-1.767c-0.088-0.239-0.165-0.484-0.234-0.734   c-1.674,1.109-3.273,2.445-4.54,4.031c-0.159-2.306-0.862-6.435-3.619-10.41c-0.416,0.681-0.922,1.305-1.544,1.825   C48.3,27.851,48.198,27.917,48.104,27.989z"></path></g></svg>