<?xml version="1.0" encoding="UTF-8"?>
<svg width="1200pt" height="1200pt" version="1.1" viewBox="0 0 1200 1200" xmlns="http://www.w3.org/2000/svg">
 <path d="m579.76 0c-57.742 0-111.97 22.477-152.77 63.281-40.805 40.801-63.324 95.066-63.324 152.77s22.52 111.97 63.324 152.78c40.801 40.805 95.027 63.281 152.77 63.281 57.664 0 111.97-22.477 152.78-63.281 35.805-35.805 57.457-81.973 62.227-131.73 110.92 8.4648 197.9 101.67 197.15 214.06l-78.211-78.391c-8.1758-8.1758-21.469-8.1758-29.648 0-8.1758 8.1367-8.1758 21.426 0 29.648l106.73 106.94c4.1094 4.0664 9.4375 6.1211 14.844 6.1211v-0.082031c5.2852 0 10.609-2.0547 14.68-6.082l107.06-106.56c8.2656-8.1758 8.2617-21.473 0.09375-29.648-8.1758-8.1797-21.473-8.0938-29.648 0l-64.25 63.926c-6.3477-129.01-109.27-233.7-238.78-241.99-4.7656-49.773-26.418-95.953-62.23-131.76-40.805-40.805-95.117-63.281-152.78-63.281zm0 41.977c46.547 0 90.207 18.113 123.13 50.992 32.836 32.922 50.949 76.582 50.949 123.13 0 40.18-13.512 78.23-38.324 109.04-30.73-14.109-63.492-23.156-96.879-27.148 1.1328-8.1758 2.3047-16.48 3.5234-24.742 7.7148-4.9062 13.172-12.203 13.676-18.242 0.88281-7.6758 1.8008-15.266 2.7695-22.984 1.0508 1.1328 2.4688 1.9766 4.1055 2.1445h0.67187c3.3555 0 6.293-2.5586 6.6289-6.0391l3.6875-35.273c0.42188-3.7344-2.3047-6.918-5.9961-7.3398l-0.58594-0.027344c-1.1328 0-2.3906 0.42188-3.3555 0.88281 0.83984-6.75 1.6367-13.422 2.4727-20.215 0.58594-9.1016 5.1602-33.676-12.539-49.484-12.875-12.582-33.422-18.828-53.93-18.828-20.547 0-41.098 6.2461-53.887 18.828-17.695 15.809-13.164 40.387-12.535 49.484 0.75391 6.793 1.5469 13.465 2.3867 20.215-0.96484-0.58594-2.1367-0.88281-3.2695-0.88281-0.25391 0-0.50391 0.027344-0.67188 0.027344-3.6094 0.42188-6.293 3.6055-6 7.3398l3.6914 35.273c0.33594 3.4805 3.2695 6.0391 6.7109 6.0391h0.58203c1.6367 0 3.1016-0.96875 4.1953-2.1445 0.87891 7.7188 1.8008 15.309 2.6406 22.984 0.58594 6.0391 6.0859 13.293 13.844 18.242 1.1328 8.2617 2.3047 16.566 3.4375 24.742-33.316 3.9922-66.117 13.004-96.895 27.152-24.879-30.828-38.395-68.855-38.395-109.04 0-46.551 18.199-90.25 51.035-123.13 32.965-32.879 76.621-50.992 123.12-50.992zm-403.95 156.87c-8.9336 0.35938-16.98 6.3828-19.434 15.445-3.0195 11.156 3.6055 22.73 14.762 25.707l87.656 23.695c-107.79 69.473-147.29 209.41-91.484 325.14-13.445 8.5078-26.039 18.566-37.566 30.09-40.797 40.805-63.316 95.07-63.316 152.78 0 57.703 22.52 111.97 63.32 152.77 40.805 40.801 95.027 63.281 152.77 63.281 57.66 0 111.97-22.477 152.77-63.281 40.801-40.805 63.242-95.07 63.242-152.77 0-57.707-22.438-111.97-63.242-152.78-40.805-40.801-95.113-63.277-152.77-63.277-27.02 0-53.266 4.9219-77.73 14.34-47.805-100.18-10.578-221.78 86.93-277.25l-28.785 106.87c-3.0195 11.156 3.6094 22.684 14.848 25.664 1.8047 0.33594 3.6055 0.75391 5.4102 0.75391 9.2656 0 17.781-6.2109 20.215-15.562l39.254-145.89c3.0156-11.156-3.6094-22.684-14.766-25.66l-145.81-39.383c-2.1016-0.55078-4.2109-0.76953-6.2734-0.68359zm701.2 356.8c-57.664 0-111.89 22.477-152.69 63.277-40.887 40.805-63.32 95.07-63.32 152.78 0 57.703 22.434 111.97 63.234 152.77 20.949 20.949 45.469 37.051 72.164 47.777-61.086 97.207-189.12 128.78-288.37 70.617l106.88-28.484c11.156-2.9805 17.863-14.465 14.844-25.664-2.9336-11.113-14.301-17.613-25.621-14.848l-145.94 38.918c-11.156 2.9766-17.781 14.426-14.848 25.625l38.75 145.98c2.4336 9.4375 10.945 15.598 20.215 15.598 1.8047 0 3.6055-0.20703 5.4102-0.71094 11.195-2.9766 17.824-14.43 14.887-25.629l-23.312-87.727c36.906 18.949 76.605 28.051 115.95 28.051 86.977 0 171.94-44.453 219.83-124.43 1.0391-1.7383 1.7812-3.5703 2.2695-5.4336 12.953 2.3906 26.215 3.6328 39.668 3.6328 57.746 0 111.97-22.477 152.77-63.281 40.805-40.805 63.32-95.07 63.32-152.77 0-57.707-22.516-111.97-63.32-152.78-40.801-40.801-95.027-63.277-152.77-63.277zm-594.49 41.98c46.551 0 90.207 18.117 123.12 50.992 32.836 32.922 50.953 76.578 50.953 123.12 0 40.184-13.512 78.234-38.328 109.04-30.73-14.109-63.488-23.156-96.875-27.148 1.1328-8.1797 2.3047-16.484 3.5234-24.746 7.7148-4.9062 13.168-12.203 13.672-18.242 0.87891-7.6758 1.8047-15.266 2.7695-22.98 1.0469 1.1328 2.4727 1.9688 4.1055 2.1367h0.67578c3.3555 0 6.2891-2.5586 6.625-6.0391l3.6914-35.266c0.41797-3.7344-2.3047-6.9219-5.9961-7.3398-0.17578 0-0.42188-0.027344-0.58984-0.027344-1.1328 0-2.3906 0.41406-3.3555 0.87891 0.83984-6.7539 1.6367-13.422 2.4766-20.215 0.58594-9.0977 5.1562-33.676-12.539-49.484-12.875-12.582-33.422-18.824-53.93-18.824-20.547 0-41.098 6.2422-53.891 18.824-17.695 15.809-13.164 40.387-12.535 49.484 0.75391 6.793 1.5508 13.461 2.3906 20.215-0.96484-0.58984-2.1445-0.87891-3.2734-0.87891l-0.67188 0.027344c-3.6055 0.41797-6.2891 3.6094-5.9961 7.3398l3.6914 35.266c0.33594 3.4805 3.2734 6.0391 6.7109 6.0391h0.58594c1.6367 0 3.1055-0.96484 4.1953-2.1367 0.88281 7.7148 1.8008 15.309 2.6406 22.98 0.58594 6.0391 6.082 13.293 13.844 18.242 1.1328 8.2617 2.3047 16.566 3.4375 24.746-33.312 3.9922-66.117 13-96.891 27.148-24.879-30.828-38.398-68.852-38.398-109.04 0-46.551 18.199-90.25 51.035-123.12 32.961-32.879 76.617-50.992 123.12-50.992zm594.49 0c46.547 0 90.246 18.117 123.12 50.992 32.918 32.922 51.035 76.578 51.035 123.12 0 40.188-13.516 78.242-38.387 109.05-30.738-14.117-63.508-23.164-96.898-27.156 1.1328-8.1797 2.3906-16.484 3.6055-24.746 7.6328-4.9062 13.168-12.203 13.672-18.242 0.87891-7.6758 1.8047-15.266 2.6836-22.98 1.0469 1.1328 2.5547 1.9688 4.1914 2.1367h0.58984c3.4414 0 6.2891-2.5586 6.625-6.0391l3.6914-35.266c0.42188-3.7344-2.3086-6.9219-5.9141-7.3398l-0.66797-0.027344c-1.1328 0-2.3086 0.41406-3.2734 0.87891 0.83984-6.7539 1.6367-13.422 2.3906-20.215 0.67188-9.0977 5.1562-33.676-12.543-49.484-12.875-12.582-33.379-18.824-53.926-18.824-20.551 0-41.059 6.2422-53.809 18.824-17.699 15.809-13.164 40.387-12.535 49.484 0.75391 6.793 1.5508 13.461 2.3047 20.215-0.96484-0.58984-2.0508-0.87891-3.2695-0.87891-0.25 0-0.42187 0.027344-0.67187 0.027344-3.5234 0.41797-6.2891 3.6094-5.9141 7.3398l3.6914 35.266c0.33594 3.4805 3.2695 6.0391 6.625 6.0391h0.66797c1.6367 0 3.1055-0.96484 4.1133-2.1367 0.96484 7.7148 1.8047 15.309 2.6406 22.98 0.58594 6.0391 6.125 13.293 13.922 18.242 1.1328 8.2617 2.2188 16.566 3.4375 24.746-33.406 3.9922-66.219 13.012-96.93 27.168-24.832-30.832-38.355-68.863-38.355-109.06 0-46.551 18.117-90.25 51.039-123.12 32.879-32.879 76.613-50.992 123.04-50.992z" fill="#192f69"/>
</svg>
