<svg height='100px' width='100px'  fill="#1a2f69" xmlns="http://www.w3.org/2000/svg" xmlns:xlink="http://www.w3.org/1999/xlink" version="1.1" x="0px" y="0px" viewBox="0 0 16 16" style="enable-background:new 0 0 16 16;" xml:space="preserve"><g><path d="M14.5,15c-0.128,0-0.256-0.049-0.354-0.146l-9-9c-0.195-0.195-0.195-0.512,0-0.707s0.512-0.195,0.707,0l9,9   c0.195,0.195,0.195,0.512,0,0.707C14.756,14.951,14.628,15,14.5,15z"></path><path d="M2.5,6h-1C1.224,6,1,5.776,1,5.5S1.224,5,1.5,5h1C2.776,5,3,5.224,3,5.5S2.776,6,2.5,6z"></path><path d="M9.5,6h-1C8.224,6,8,5.776,8,5.5S8.224,5,8.5,5h1C9.776,5,10,5.224,10,5.5S9.776,6,9.5,6z"></path><path d="M5.5,10C5.224,10,5,9.776,5,9.5v-1C5,8.224,5.224,8,5.5,8S6,8.224,6,8.5v1C6,9.776,5.776,10,5.5,10z"></path><path d="M5.5,3C5.224,3,5,2.776,5,2.5v-1C5,1.224,5.224,1,5.5,1S6,1.224,6,1.5v1C6,2.776,5.776,3,5.5,3z"></path><path d="M2.672,8.828c-0.128,0-0.256-0.049-0.354-0.146c-0.195-0.195-0.195-0.512,0-0.707l0.707-0.707   c0.195-0.195,0.512-0.195,0.707,0s0.195,0.512,0,0.707L3.025,8.682C2.928,8.779,2.8,8.828,2.672,8.828z"></path><path d="M7.621,3.879c-0.128,0-0.256-0.049-0.354-0.146c-0.195-0.195-0.195-0.512,0-0.707l0.707-0.707   c0.195-0.195,0.512-0.195,0.707,0s0.195,0.512,0,0.707L7.975,3.732C7.877,3.83,7.749,3.879,7.621,3.879z"></path><path d="M3.379,3.879c-0.128,0-0.256-0.049-0.354-0.146L2.318,3.025c-0.195-0.195-0.195-0.512,0-0.707s0.512-0.195,0.707,0   l0.707,0.707c0.195,0.195,0.195,0.512,0,0.707C3.635,3.83,3.507,3.879,3.379,3.879z"></path></g></svg>