<?xml version="1.0" encoding="UTF-8"?>
<svg width="1200pt" height="1200pt" version="1.1" viewBox="0 0 1200 1200" xmlns="http://www.w3.org/2000/svg">
 <g fill="#192f69">
  <path d="m332.73 900c3.6367 5.4531 7.2734 10.91 7.2734 16.363v221.82c0 14.547-14.547 25.453-27.273 23.637-12.727-1.8164-23.637-12.727-23.637-25.453v-201.82c0-5.4531-1.8164-9.0898-5.4531-12.727-63.637-60-65.453-72.727-81.816-67.273-7.2734 1.8164-12.727 5.4531-14.547 12.727l-94.547 272.73c-3.6367 12.727-18.184 20-32.727 14.547-12.727-3.6367-20-16.363-16.363-30.91l110.91-372.73c14.547 5.4531 30.91 3.6367 45.453-1.8164 32.727-14.547 49.09-50.91 34.547-81.816l-76.363-163.64c-5.4531-9.0898-16.363-14.547-27.273-9.0898-10.91 3.6367-14.547 16.363-10.91 25.453l76.363 163.64c5.4531 12.727 0 25.453-12.727 30.91-9.0898 3.6367-20 1.8164-27.273-3.6367-16.363-25.453-74.547-154.55-103.64-218.18-7.2734-14.547 1.8164-29.09 16.363-32.727l227.27-60.004h3.6367c14.547-1.8164 25.453 12.727 23.637 27.273l-67.273 336.36c-5.4531 21.816 0 43.637 14.547 61.816z"/>
  <path d="m594.55 423.64c0 12.727-10.91 23.637-25.453 23.637h-209.09c0-7.2734 9.0898-23.637-1.8164-47.273h210.91c12.723 0 25.453 10.91 25.453 23.637z"/>
  <path d="m358.18 240c0 60-47.273 107.27-107.27 107.27s-107.27-47.273-107.27-107.27 49.09-107.27 107.27-107.27c60 0 107.27 49.09 107.27 107.27z"/>
  <path d="m681.82 1181.8h-218.18c-10.91 0-18.184-7.2734-18.184-18.184 0-10.91 7.2734-18.184 18.184-18.184h200l0.003907-200c0-10.91 7.2734-18.184 18.184-18.184h210.91l-0.003907-190.91c0-10.91 7.2734-18.184 18.184-18.184h209.09v-163.64c0-10.91 7.2734-18.184 18.184-18.184s18.184 7.2734 18.184 18.184v181.82c0 10.91-7.2734 18.184-18.184 18.184l-209.09 0.003906v190.91c0 10.91-7.2734 18.184-18.184 18.184h-210.91v200c0 10.91-7.2734 18.18-18.184 18.18z"/>
  <path d="m645.45 218.18v38.184c0 20-16.363 36.363-36.363 36.363h-174.55c-20 0-36.363-16.363-36.363-36.363l0.003906-38.184c0-20 16.363-36.363 36.363-36.363h174.55c19.996-0.003906 36.359 16.363 36.359 36.363z"/>
  <path d="m580 329.09v36.363c-3.6367-1.8164-7.2734-1.8164-10.91-1.8164h-105.45v-34.547z"/>
  <path d="m463.64 145.45c9.0898-25.453 14.547-61.816 1.8164-103.64-3.6367-10.91 3.6367-21.816 16.363-23.637 0 0 61.816-5.4531 100 40 18.184 21.816 27.273 50.91 27.273 87.273z"/>
 </g>
</svg>
