<?xml version="1.0" encoding="UTF-8"?>
<svg width="1200pt" height="1200pt" version="1.1" viewBox="0 0 1200 1200" xmlns="http://www.w3.org/2000/svg">
 <g fill="#192f69">
  <path d="m337.11 192.05c2.6133 58.262-42.5 107.61-100.77 110.22-58.262 2.6133-107.61-42.5-110.22-100.76s42.5-107.61 100.76-110.23c58.262-2.6133 107.61 42.5 110.23 100.77"/>
  <path d="m354 536.4c6 8.3984 15.602 13.199 25.199 15.602l109.2 22.801c3.6016 1.1992 6 1.1992 8.3984 1.1992 20.398 0 38.398-14.398 43.199-34.801 4.8008-24-10.801-46.801-33.602-51.602l-93.602-19.199-93.602-116.4c-2.3984-4.8008-6-8.3984-10.801-12-8.3984-7.1992-19.199-12-30-12h-3.6016-90c-27.602 0-50.398 22.801-50.398 50.398v274.8l-10.801 109.2c-4.8008 54-18 105.6-39.602 156l-50.387 118.8c-10.801 25.199 1.1992 55.199 26.398 66 6 2.3984 13.199 3.6016 19.199 3.6016 19.199 0 38.398-12 46.801-31.199l51.602-121.2c25.199-58.801 40.801-121.2 46.801-186l6-64.801 45.602 357.6c3.6016 27.602 28.801 46.801 56.398 44.398 27.602-3.6016 46.801-28.801 44.398-56.398l-50.398-399.6-0.003906-148.8z"/>
  <path d="m973.92 91.371c58.262 2.6133 103.38 51.961 100.76 110.23-2.6133 58.262-51.961 103.38-110.22 100.76-58.266-2.6133-103.38-51.965-100.77-110.23 2.6133-58.262 51.965-103.38 110.23-100.76"/>
  <path d="m1166.4 1039.2-51.602-121.2c-21.602-49.199-34.801-102-39.602-156l-10.801-109.2 0.003907-273.6c0-27.602-22.801-50.398-50.398-50.398h-90-3.6016c-10.801 0-21.602 3.6016-30 12-3.6016 3.6016-7.1992 7.1992-10.801 12l-93.602 116.4-93.602 19.199c-24 4.8008-38.398 27.602-33.602 51.602 4.8008 20.398 22.801 34.801 43.199 34.801 2.3984 0 6 0 8.3984-1.1992l109.2-22.801c9.6016-2.3984 19.199-7.1992 25.199-15.602l27.602-33.602v150l-50.398 399.6c-3.6016 27.602 15.602 52.801 44.398 56.398 27.602 3.6016 52.801-15.602 56.398-44.398l45.602-357.6 6 64.801c6 63.602 21.602 126 46.801 186l51.602 121.2c8.3984 19.199 26.398 31.199 46.801 31.199 7.1992 0 13.199-1.1992 19.199-3.6016 26.406-10.797 38.406-40.797 27.605-65.996z"/>
  <path d="m453.6 397.2 14.398-16.801c8.3984-10.801 21.602-15.602 34.801-15.602h126l-9.6016 48c-2.3984 12 12 21.602 21.602 13.199l123.6-92.398c7.1992-6 7.1992-16.801 0-21.602l-123.6-92.398c-9.6016-7.1992-24 1.1992-21.602 13.199l9.6016 48-128.4 0.003906c-38.398 0-69.602 31.199-69.602 69.602v37.199c0.003906 13.199 14.402 19.199 22.805 9.5977z"/>
  <path d="m746.4 666-14.398 16.801c-8.3984 10.801-21.602 15.602-34.801 15.602l-126-0.003906 9.6016-48c2.3984-12-12-21.602-21.602-13.199l-123.6 92.398c-7.1992 6-7.1992 16.801 0 21.602l123.6 92.398c9.6016 7.1992 24-1.1992 21.602-13.199l-9.6016-48h128.4c38.398 0 69.602-31.199 69.602-69.602v-37.199c0-13.199-14.398-19.199-22.801-9.5977z"/>
 </g>
</svg>
