<?xml version="1.0" encoding="UTF-8"?>
<svg width="1200pt" height="1200pt" version="1.1" viewBox="0 0 1200 1200" xmlns="http://www.w3.org/2000/svg">
 <path d="m258.72 297.34c88.711 0 160.64 71.93 160.64 160.62 0 29.918-8.1797 57.914-22.422 81.895 65.254 44.449 105 118.28 105 197.45v77.699h-486.41v-77.699c0-79.172 39.742-153 104.98-197.45-14.23-23.98-22.406-51.973-22.406-81.895 0-88.695 71.914-160.62 160.62-160.62zm750.76-286.61c65.551 0 118.7 53.148 118.7 118.71 0 19.09-4.5078 37.121-12.516 53.109 43.016 32.473 68.812 83.27 68.812 137.32v62.18h-350.01v-62.18c0-28.105 6.9023-54.766 19.09-78.352h-159.99v329.59h203.43c-4.0547-11.949-6.2344-24.746-6.2344-38.07 0-65.551 53.148-118.7 118.71-118.7 65.551 0 118.7 53.148 118.7 118.7 0 19.09-4.5078 37.133-12.516 53.121 43.016 32.457 68.812 83.254 68.812 137.32v62.164h-350.01v-62.164c0-33.762 10.008-66.488 28.645-94.605h-169.54v329.59h199.19c-1.3047-7.0742-2-14.359-2-21.812 0-65.551 53.148-118.71 118.71-118.71 65.551 0 118.7 53.164 118.7 118.71 0 19.09-4.5078 37.133-12.516 53.109 43.016 32.473 68.812 83.27 68.812 137.34v62.164h-350.01v-62.164c0-40.734 14.613-79.867 40.832-110.86h-239.5v-387.36h-108.54v-57.77h108.54v-387.36h265.91l1.5742-1.2031c-8.0078-15.973-12.516-34.016-12.516-53.109 0-65.566 53.148-118.71 118.71-118.71zm68.441 215.7c-19.348 13.676-42.961 21.715-68.441 21.715-25.496 0-49.109-8.0352-68.457-21.715-30.57 21.457-48.785 55.984-48.785 93.445v4.4062h234.47v-4.4062c0-37.461-18.211-71.988-48.785-93.445zm-136.9 807.21c-30.57 21.457-48.785 55.984-48.785 93.461v4.3945h234.47v-4.3945c0-37.473-18.211-72-48.785-93.461-40.762 28.812-96.137 28.812-136.9 0zm68.457-157.93c-33.66 0-60.945 27.285-60.945 60.945s27.285 60.93 60.945 60.93c33.648 0 60.93-27.27 60.93-60.93s-27.285-60.945-60.93-60.945zm-68.457-245.67c-30.57 21.457-48.785 55.984-48.785 93.445v4.3945h234.47v-4.3945c0-37.473-18.211-71.988-48.785-93.445-40.762 28.812-96.137 28.812-136.9 0zm68.457-157.93c-33.66 0-60.945 27.285-60.945 60.93 0 33.66 27.285 60.945 60.945 60.945 33.648 0 60.93-27.285 60.93-60.945 0-33.648-27.285-60.93-60.93-60.93zm-650.86 111.64c-27.426 21.812-62.148 34.852-99.906 34.852s-72.484-13.039-99.906-34.852c-53.078 33.164-85.523 90.809-85.523 153.55v19.926h370.88v-19.926c0-62.758-32.441-120.39-85.535-153.55zm-99.906-228.64c-56.809 0-102.86 46.051-102.86 102.86 0 56.82 46.051 102.87 102.86 102.87 56.809 0 102.87-46.051 102.87-102.87 0-56.809-46.062-102.86-102.87-102.86zm750.76-286.61c-33.66 0-60.945 27.285-60.945 60.945 0 33.648 27.285 60.93 60.945 60.93 33.648 0 60.93-27.285 60.93-60.93 0-33.66-27.285-60.945-60.93-60.945z" fill="#192f69"/>
</svg>
