<svg height='100px' width='100px'  fill="#1a2f69" xmlns="http://www.w3.org/2000/svg" data-name="Layer 1" viewBox="0 0 100 100" x="0px" y="0px"><title>10</title><g data-name="Group"><path data-name="Compound Path" d="M20.6,30.1a7,7,0,0,0-.7,1.9l-6.7,1.8a3,3,0,0,0-2.2,2.5L4.9,38a3,3,0,0,0-2.1,3.7L6,53.3a3,3,0,0,0,2.9,2.2h.8l6-1.6.9.7A3,3,0,0,0,18,55h.8L25.6,53a7,7,0,0,0,5,2.2l1.8-.2,15.1-4.1V65L31.6,90a3,3,0,0,0,5,3.2l14-21.7,14,21.7a3,3,0,0,0,5-3.2L53.6,65V49.2l19.8-5.4a3,3,0,0,0,2.8,2h.4l16.4-2h0a5,5,0,0,0,4.2-6.3L89.4,9.1a5,5,0,0,0-6.8-3.3L67.5,12.4a3,3,0,0,0-1.7,3.3L24.8,26.9A7,7,0,0,0,20.6,30.1ZM11,48.9,9.4,43l2.9-.8,1.6,5.9Zm9.2-.6-2.6-9.4,3-.8,2.6,9.4ZM83.9,11.8,91,38,78.4,39.5,72.3,16.9ZM25.8,33.1a1,1,0,0,1,.6-.5L67.3,21.5,71.8,38,30.9,49.1a1,1,0,0,1-1.2-.7l-4-14.6A1,1,0,0,1,25.8,33.1Z"></path></g></svg>